<?xml version="1.0" encoding="utf-8"?>
<svg viewBox="0 0 1080 1080" xmlns="http://www.w3.org/2000/svg">
    <rect x="0.162" y="1.162" width="1079.114" height="1077.604"
          style="fill: rgb(29, 181, 60); stroke: rgb(29, 181, 60);"
          transform="matrix(1, 0, 0, 1, 0, 2.2737367544323206e-13)"/>
    <g transform="matrix(1, 0, 0, 1, 1.5342738628391999, -73.16510772705055)">
        <rect x="162.98" y="225.18" width="240.09" height="229.043" style="stroke: rgb(0, 0, 0);"/>
        <rect x="163.213" y="225.574" width="64.832" height="228.084"
              style="stroke: rgb(7, 62, 33); fill: rgb(7, 62, 33);"/>
        <rect x="163.291" y="223.08" width="239.415" height="43.174"
              style="stroke: rgb(7, 62, 33); fill: rgb(8, 61, 32);"/>
    </g>
    <g transform="matrix(1, 0, 0, 1, 486.13751220703125, -59.90253829956032)">
        <rect x="162.98" y="225.18" width="240.09" height="229.043" style="stroke: rgb(0, 0, 0);"/>
        <rect x="339.636" y="222.239" width="64.832" height="232.013"
              style="stroke: rgb(7, 62, 33); fill: rgb(7, 62, 33);"/>
        <rect x="163.291" y="223.08" width="239.415" height="43.174"
              style="stroke: rgb(7, 62, 33); fill: rgb(8, 61, 32);"/>
    </g>
    <rect x="407.652" y="496.72" width="229.654" height="288.882" style="stroke: rgb(0, 0, 0);"
          transform="matrix(1, 0, 0, 1, 0, 2.2737367544323206e-13)"/>
    <rect x="408.112" y="443.469" width="229.654" height="58.917" style="stroke: rgb(7, 62, 33); fill: rgb(8, 61, 32);"
          transform="matrix(1, 0, 0, 1, 0, 2.2737367544323206e-13)"/>
    <rect x="292.922" y="502.117" width="114.094" height="62.302" style="stroke: rgb(7, 62, 33); fill: rgb(8, 61, 32);"
          transform="matrix(1, 0, 0, 1, 0, 2.2737367544323206e-13)"/>
    <rect x="638.473" y="502.591" width="114.244" height="62.302" style="stroke: rgb(7, 62, 33); fill: rgb(8, 61, 32);"
          transform="matrix(1, 0, 0, 1, 0, 2.2737367544323206e-13)"/>
    <rect x="636.169" y="565.958" width="116.499" height="393.218" style="stroke: rgb(0, 0, 0);"
          transform="matrix(1, 0, 0, 1, 0, 2.2737367544323206e-13)"/>
    <rect x="293.611" y="562.607" width="116.499" height="393.218" style="stroke: rgb(0, 0, 0);"
          transform="matrix(1, 0, 0, 1, 0, 2.2737367544323206e-13)"/>
</svg>
